<svg width="319" height="108" viewBox="0 0 319 108" fill="none" xmlns="http://www.w3.org/2000/svg">
<g clip-path="url(#clip0_30_88)">
<path d="M124.854 23.8835V48.489C124.854 51.4144 125.612 53.6173 127.128 55.0986C128.682 56.5799 130.827 57.3203 133.564 57.3203C136.338 57.3203 138.483 56.5799 139.999 55.0986C141.553 53.6173 142.329 51.4144 142.329 48.489V23.8835H148.654V48.3779C148.654 51.5255 147.97 54.1915 146.601 56.3761C145.233 58.5607 143.402 60.1902 141.109 61.2639C138.816 62.3376 136.282 62.8746 133.508 62.8746C130.735 62.8746 128.201 62.3376 125.908 61.2639C123.652 60.1902 121.858 58.5607 120.527 56.3761C119.195 54.1915 118.529 51.5255 118.529 48.3779V23.8835H124.854ZM167.984 62.9857C165.58 62.9857 163.416 62.5598 161.493 61.7082C159.607 60.8195 158.109 59.6347 157 58.1535C155.89 56.6354 155.298 54.9504 155.224 53.0991H161.771C161.882 54.3949 162.492 55.4874 163.602 56.3761C164.748 57.2276 166.172 57.6536 167.873 57.6536C169.649 57.6536 171.017 57.3203 171.979 56.6538C172.977 55.9501 173.477 55.0615 173.477 53.9877C173.477 52.8397 172.922 51.9882 171.812 51.4328C170.74 50.8773 169.02 50.2664 166.653 49.5999C164.36 48.9705 162.492 48.3595 161.05 47.7669C159.607 47.1744 158.35 46.2673 157.277 45.0453C156.241 43.8234 155.724 42.2126 155.724 40.2131C155.724 38.584 156.204 37.1027 157.166 35.7697C158.128 34.3996 159.496 33.3258 161.271 32.5482C163.084 31.7706 165.155 31.3818 167.485 31.3818C170.961 31.3818 173.754 32.2705 175.862 34.0478C178.007 35.7881 179.154 38.1764 179.302 41.2129H172.977C172.866 39.8427 172.312 38.7506 171.313 37.9358C170.314 37.1211 168.964 36.7139 167.263 36.7139C165.599 36.7139 164.323 37.0287 163.435 37.6581C162.547 38.2875 162.104 39.1206 162.104 40.1576C162.104 40.9723 162.399 41.6572 162.991 42.2126C163.583 42.7681 164.304 43.2124 165.155 43.5457C166.006 43.8418 167.263 44.2306 168.927 44.7121C171.147 45.3046 172.959 45.9156 174.364 46.545C175.807 47.1376 177.046 48.0263 178.081 49.2111C179.117 50.3959 179.653 51.9698 179.69 53.9322C179.69 55.6724 179.209 57.2276 178.248 58.5978C177.286 59.968 175.918 61.0417 174.142 61.8193C172.404 62.5969 170.351 62.9857 167.984 62.9857ZM214.541 46.4339C214.541 47.5819 214.466 48.6185 214.319 49.5443H190.962C191.147 51.9882 192.053 53.9506 193.681 55.4319C195.308 56.9131 197.305 57.6536 199.673 57.6536C203.075 57.6536 205.479 56.2279 206.885 53.3768H213.708C212.784 56.1911 211.101 58.5051 208.66 60.3196C206.256 62.097 203.26 62.9857 199.673 62.9857C196.751 62.9857 194.125 62.3376 191.795 61.0417C189.501 59.7087 187.689 57.8574 186.358 55.4874C185.063 53.0807 184.416 50.3035 184.416 47.156C184.416 44.0084 185.045 41.25 186.302 38.8801C187.597 36.4733 189.39 34.6218 191.684 33.3258C194.014 32.0298 196.677 31.3818 199.673 31.3818C202.557 31.3818 205.128 32.0112 207.384 33.2702C209.64 34.5292 211.397 36.3067 212.654 38.6023C213.912 40.8612 214.541 43.4717 214.541 46.4339ZM207.939 44.4344C207.902 42.1016 207.069 40.2315 205.442 38.8245C203.815 37.4175 201.799 36.7139 199.395 36.7139C197.213 36.7139 195.345 37.4175 193.792 38.8245C192.238 40.1947 191.314 42.0644 191.018 44.4344H207.939ZM227.089 36.3251C228.014 34.7699 229.234 33.5664 230.751 32.7148C232.304 31.8261 234.135 31.3818 236.243 31.3818V37.9358H234.634C232.156 37.9358 230.27 38.5652 228.975 39.8243C227.718 41.0834 227.089 43.268 227.089 46.3784V62.4858H220.765V31.8817H227.089V36.3251ZM253.152 62.9857C250.748 62.9857 248.584 62.5598 246.661 61.7082C244.775 60.8195 243.277 59.6347 242.167 58.1535C241.058 56.6354 240.466 54.9504 240.392 53.0991H246.939C247.05 54.3949 247.66 55.4874 248.769 56.3761C249.916 57.2276 251.34 57.6536 253.041 57.6536C254.817 57.6536 256.185 57.3203 257.147 56.6538C258.145 55.9501 258.645 55.0615 258.645 53.9877C258.645 52.8397 258.09 51.9882 256.98 51.4328C255.907 50.8773 254.188 50.2664 251.821 49.5999C249.527 48.9705 247.66 48.3595 246.217 47.7669C244.775 47.1744 243.517 46.2673 242.445 45.0453C241.409 43.8234 240.891 42.2126 240.891 40.2131C240.891 38.584 241.372 37.1027 242.334 35.7697C243.295 34.3996 244.664 33.3258 246.439 32.5482C248.251 31.7706 250.323 31.3818 252.653 31.3818C256.129 31.3818 258.922 32.2705 261.03 34.0478C263.175 35.7881 264.322 38.1764 264.47 41.2129H258.145C258.034 39.8427 257.479 38.7506 256.481 37.9358C255.482 37.1211 254.132 36.7139 252.431 36.7139C250.767 36.7139 249.491 37.0287 248.603 37.6581C247.715 38.2875 247.271 39.1206 247.271 40.1576C247.271 40.9723 247.567 41.6572 248.159 42.2126C248.751 42.7681 249.472 43.2124 250.323 43.5457C251.173 43.8418 252.431 44.2306 254.095 44.7121C256.314 45.3046 258.126 45.9156 259.532 46.545C260.975 47.1376 262.214 48.0263 263.249 49.2111C264.285 50.3959 264.821 51.9698 264.858 53.9322C264.858 55.6724 264.377 57.2276 263.416 58.5978C262.454 59.968 261.086 61.0417 259.31 61.8193C257.572 62.5969 255.519 62.9857 253.152 62.9857Z" fill="#395B64"/>
<path d="M127.912 81.6655C127.6 81.0639 127.167 80.6126 126.612 80.3116C126.057 79.9992 125.415 79.843 124.687 79.843C123.89 79.843 123.179 80.0225 122.555 80.3811C121.931 80.7397 121.439 81.2489 121.081 81.9085C120.734 82.5681 120.561 83.3318 120.561 84.1996C120.561 85.0675 120.734 85.8371 121.081 86.5081C121.439 87.1677 121.931 87.677 122.555 88.0356C123.179 88.3942 123.89 88.5736 124.687 88.5736C125.762 88.5736 126.635 88.2727 127.305 87.6711C127.975 87.0695 128.386 86.2537 128.536 85.2237H124.011V83.6442H130.651V85.189C130.524 86.1263 130.189 86.9882 129.646 87.7752C129.114 88.5622 128.415 89.1926 127.548 89.6672C126.693 90.1299 125.739 90.3614 124.687 90.3614C123.555 90.3614 122.52 90.1011 121.584 89.5804C120.648 89.0482 119.902 88.3133 119.348 87.376C118.804 86.4387 118.533 85.3799 118.533 84.1996C118.533 83.0194 118.804 81.9606 119.348 81.0233C119.902 80.086 120.648 79.357 121.584 78.8363C122.532 78.3041 123.566 78.0378 124.687 78.0378C125.97 78.0378 127.109 78.3562 128.103 78.9925C129.108 79.6173 129.836 80.5085 130.287 81.6655H127.912ZM141.356 85.2411C141.356 85.5997 141.333 85.9239 141.286 86.2131H133.988C134.045 86.9768 134.328 87.5902 134.837 88.0529C135.346 88.5157 135.97 88.7472 136.709 88.7472C137.773 88.7472 138.524 88.3018 138.963 87.4107H141.096C140.807 88.29 140.281 89.0135 139.518 89.5804C138.767 90.1358 137.83 90.4135 136.709 90.4135C135.797 90.4135 134.976 90.2111 134.248 89.806C133.531 89.3894 132.965 88.8108 132.549 88.0703C132.144 87.318 131.942 86.4502 131.942 85.4667C131.942 84.4833 132.138 83.621 132.531 82.8805C132.936 82.1282 133.496 81.5499 134.213 81.1448C134.941 80.7397 135.773 80.5373 136.709 80.5373C137.611 80.5373 138.414 80.7341 139.119 81.1274C139.824 81.5207 140.373 82.0762 140.766 82.7937C141.159 83.4995 141.356 84.3152 141.356 85.2411ZM139.293 84.6162C139.281 83.8872 139.021 83.303 138.513 82.8631C138.004 82.4233 137.374 82.2036 136.623 82.2036C135.941 82.2036 135.357 82.4233 134.872 82.8631C134.386 83.2912 134.097 83.8758 134.005 84.6162H139.293ZM145.277 82.0821C145.566 81.5961 145.948 81.2201 146.421 80.9539C146.907 80.6761 147.479 80.5373 148.138 80.5373V82.5854H147.635C146.861 82.5854 146.271 82.7823 145.867 83.1756C145.474 83.5689 145.277 84.2517 145.277 85.2237V90.2573H143.301V80.6935H145.277V82.0821ZM158.71 85.2411C158.71 85.5997 158.686 85.9239 158.64 86.2131H151.342C151.399 86.9768 151.682 87.5902 152.191 88.0529C152.699 88.5157 153.323 88.7472 154.063 88.7472C155.127 88.7472 155.878 88.3018 156.317 87.4107H158.45C158.16 88.29 157.635 89.0135 156.872 89.5804C156.121 90.1358 155.184 90.4135 154.063 90.4135C153.15 90.4135 152.33 90.2111 151.602 89.806C150.885 89.3894 150.319 88.8108 149.903 88.0703C149.498 87.318 149.296 86.4502 149.296 85.4667C149.296 84.4833 149.492 83.621 149.885 82.8805C150.29 82.1282 150.85 81.5499 151.567 81.1448C152.295 80.7397 153.127 80.5373 154.063 80.5373C154.965 80.5373 155.768 80.7341 156.473 81.1274C157.178 81.5207 157.727 82.0762 158.12 82.7937C158.513 83.4995 158.71 84.3152 158.71 85.2411ZM156.647 84.6162C156.635 83.8872 156.375 83.303 155.866 82.8631C155.358 82.4233 154.728 82.2036 153.977 82.2036C153.295 82.2036 152.711 82.4233 152.226 82.8631C151.74 83.2912 151.451 83.8758 151.359 84.6162H156.647ZM165.474 80.5373C166.226 80.5373 166.896 80.6935 167.485 81.0059C168.086 81.3184 168.554 81.7811 168.89 82.3945C169.225 83.0079 169.392 83.7484 169.392 84.6162V90.2573H167.433V84.9113C167.433 84.0549 167.219 83.4012 166.792 82.9499C166.364 82.4872 165.78 82.2556 165.041 82.2556C164.301 82.2556 163.712 82.4872 163.272 82.9499C162.845 83.4012 162.631 84.0549 162.631 84.9113V90.2573H160.655V80.6935H162.631V81.787C162.954 81.3937 163.365 81.0868 163.862 80.8671C164.371 80.6473 164.908 80.5373 165.474 80.5373ZM171.255 85.4667C171.255 84.4833 171.451 83.621 171.844 82.8805C172.248 82.1282 172.803 81.5499 173.509 81.1448C174.213 80.7397 175.022 80.5373 175.936 80.5373C177.091 80.5373 178.045 80.815 178.796 81.3704C179.559 81.9144 180.073 82.6955 180.339 83.7136H178.207C178.033 83.2391 177.756 82.869 177.375 82.6028C176.993 82.3365 176.513 82.2036 175.936 82.2036C175.126 82.2036 174.479 82.4927 173.994 83.0714C173.52 83.6383 173.283 84.4367 173.283 85.4667C173.283 86.4967 173.52 87.3007 173.994 87.8794C174.479 88.4581 175.126 88.7472 175.936 88.7472C177.08 88.7472 177.837 88.2439 178.207 87.2371H180.339C180.062 88.2091 179.542 88.9843 178.779 89.563C178.016 90.1299 177.068 90.4135 175.936 90.4135C175.022 90.4135 174.213 90.2111 173.509 89.806C172.803 89.3894 172.248 88.8108 171.844 88.0703C171.451 87.318 171.255 86.4502 171.255 85.4667ZM183.314 79.4264C182.956 79.4264 182.656 79.3049 182.413 79.0619C182.17 78.8189 182.049 78.5179 182.049 78.1593C182.049 77.8007 182.17 77.4998 182.413 77.2568C182.656 77.0138 182.956 76.8923 183.314 76.8923C183.661 76.8923 183.956 77.0138 184.199 77.2568C184.441 77.4998 184.563 77.8007 184.563 78.1593C184.563 78.5179 184.441 78.8189 184.199 79.0619C183.956 79.3049 183.661 79.4264 183.314 79.4264ZM184.285 80.6935V90.2573H182.309V80.6935H184.285ZM195.635 85.2411C195.635 85.5997 195.612 85.9239 195.566 86.2131H188.267C188.325 86.9768 188.608 87.5902 189.117 88.0529C189.625 88.5157 190.249 88.7472 190.989 88.7472C192.053 88.7472 192.804 88.3018 193.243 87.4107H195.375C195.086 88.29 194.56 89.0135 193.798 89.5804C193.046 90.1358 192.11 90.4135 190.989 90.4135C190.076 90.4135 189.255 90.2111 188.527 89.806C187.81 89.3894 187.244 88.8108 186.828 88.0703C186.424 87.318 186.221 86.4502 186.221 85.4667C186.221 84.4833 186.418 83.621 186.811 82.8805C187.215 82.1282 187.776 81.5499 188.493 81.1448C189.221 80.7397 190.053 80.5373 190.989 80.5373C191.891 80.5373 192.694 80.7341 193.399 81.1274C194.104 81.5207 194.653 82.0762 195.046 82.7937C195.439 83.4995 195.635 84.3152 195.635 85.2411ZM193.572 84.6162C193.561 83.8872 193.301 83.303 192.792 82.8631C192.283 82.4233 191.654 82.2036 190.902 82.2036C190.22 82.2036 189.637 82.4233 189.151 82.8631C188.666 83.2912 188.377 83.8758 188.284 84.6162H193.572ZM205.551 90.4135C204.8 90.4135 204.124 90.2806 203.523 90.0143C202.934 89.7366 202.465 89.3662 202.119 88.9034C201.772 88.4289 201.587 87.9026 201.564 87.3239H203.61C203.644 87.7291 203.835 88.0703 204.182 88.348C204.54 88.6143 204.985 88.7472 205.517 88.7472C206.072 88.7472 206.499 88.6431 206.8 88.4348C207.112 88.2151 207.268 87.9373 207.268 87.6017C207.268 87.2431 207.094 86.9768 206.748 86.8032C206.412 86.6296 205.875 86.4387 205.135 86.2304C204.419 86.0336 203.835 85.8427 203.384 85.6576C202.934 85.4726 202.54 85.189 202.205 84.8071C201.882 84.4253 201.72 83.9219 201.72 83.2971C201.72 82.7878 201.87 82.3251 202.171 81.9085C202.471 81.4805 202.899 81.1448 203.454 80.9018C204.02 80.6588 204.667 80.5373 205.395 80.5373C206.482 80.5373 207.354 80.815 208.013 81.3704C208.683 81.9144 209.042 82.6608 209.088 83.6095H207.112C207.077 83.1815 206.904 82.8399 206.592 82.5854C206.28 82.331 205.858 82.2036 205.326 82.2036C204.806 82.2036 204.407 82.3018 204.13 82.4986C203.852 82.6955 203.714 82.9558 203.714 83.2797C203.714 83.5342 203.806 83.7484 203.991 83.9219C204.176 84.0955 204.401 84.2344 204.667 84.3385C204.933 84.4312 205.326 84.5527 205.846 84.703C206.54 84.888 207.106 85.079 207.545 85.2758C207.996 85.4608 208.383 85.7385 208.707 86.1089C209.03 86.4793 209.198 86.9709 209.209 87.5843C209.209 88.1283 209.059 88.6143 208.759 89.0423C208.458 89.4703 208.031 89.806 207.476 90.049C206.932 90.292 206.291 90.4135 205.551 90.4135ZM220.1 85.2411C220.1 85.5997 220.077 85.9239 220.031 86.2131H212.732C212.79 86.9768 213.073 87.5902 213.581 88.0529C214.09 88.5157 214.714 88.7472 215.454 88.7472C216.517 88.7472 217.268 88.3018 217.707 87.4107H219.84C219.551 88.29 219.025 89.0135 218.262 89.5804C217.511 90.1358 216.575 90.4135 215.454 90.4135C214.541 90.4135 213.72 90.2111 212.992 89.806C212.275 89.3894 211.709 88.8108 211.293 88.0703C210.888 87.318 210.686 86.4502 210.686 85.4667C210.686 84.4833 210.883 83.621 211.275 82.8805C211.68 82.1282 212.241 81.5499 212.957 81.1448C213.685 80.7397 214.517 80.5373 215.454 80.5373C216.355 80.5373 217.158 80.7341 217.863 81.1274C218.569 81.5207 219.118 82.0762 219.51 82.7937C219.904 83.4995 220.1 84.3152 220.1 85.2411ZM218.037 84.6162C218.025 83.8872 217.765 83.303 217.257 82.8631C216.748 82.4233 216.118 82.2036 215.367 82.2036C214.685 82.2036 214.101 82.4233 213.616 82.8631C213.13 83.2912 212.842 83.8758 212.749 84.6162H218.037ZM230.696 80.6935V90.2573H228.72V89.1291C228.408 89.5224 227.998 89.8348 227.489 90.0664C226.992 90.2861 226.46 90.3962 225.894 90.3962C225.143 90.3962 224.466 90.2399 223.865 89.9275C223.276 89.6151 222.808 89.1523 222.461 88.5389C222.126 87.9255 221.958 87.1851 221.958 86.3172V80.6935H223.917V86.0222C223.917 86.8786 224.131 87.5381 224.559 88.0009C224.986 88.4522 225.57 88.6778 226.31 88.6778C227.05 88.6778 227.633 88.4522 228.061 88.0009C228.5 87.5381 228.72 86.8786 228.72 86.0222V80.6935H230.696ZM242.627 80.5373C243.379 80.5373 244.049 80.6935 244.638 81.0059C245.239 81.3184 245.707 81.7811 246.043 82.3945C246.378 83.0079 246.545 83.7484 246.545 84.6162V90.2573H244.586V84.9113C244.586 84.0549 244.372 83.4012 243.945 82.9499C243.517 82.4872 242.933 82.2556 242.194 82.2556C241.454 82.2556 240.865 82.4872 240.425 82.9499C239.998 83.4012 239.784 84.0549 239.784 84.9113V90.2573H237.807V80.6935H239.784V81.787C240.107 81.3937 240.518 81.0868 241.015 80.8671C241.524 80.6473 242.061 80.5373 242.627 80.5373ZM257.822 85.2411C257.822 85.5997 257.798 85.9239 257.752 86.2131H250.453C250.511 86.9768 250.794 87.5902 251.303 88.0529C251.811 88.5157 252.435 88.7472 253.175 88.7472C254.238 88.7472 254.99 88.3018 255.429 87.4107H257.562C257.272 88.29 256.747 89.0135 255.984 89.5804C255.233 90.1358 254.296 90.4135 253.175 90.4135C252.262 90.4135 251.442 90.2111 250.713 89.806C249.997 89.3894 249.431 88.8108 249.014 88.0703C248.61 87.318 248.408 86.4502 248.408 85.4667C248.408 84.4833 248.604 83.621 248.997 82.8805C249.401 82.1282 249.962 81.5499 250.679 81.1448C251.407 80.7397 252.239 80.5373 253.175 80.5373C254.077 80.5373 254.88 80.7341 255.585 81.1274C256.29 81.5207 256.839 82.0762 257.232 82.7937C257.625 83.4995 257.822 84.3152 257.822 85.2411ZM255.759 84.6162C255.747 83.8872 255.487 83.303 254.978 82.8631C254.47 82.4233 253.84 82.2036 253.089 82.2036C252.407 82.2036 251.823 82.4233 251.338 82.8631C250.852 83.2912 250.563 83.8758 250.471 84.6162H255.759ZM263.615 80.5373C264.355 80.5373 265.008 80.6876 265.574 80.9886C266.152 81.2777 266.603 81.6422 266.927 82.0821V80.6935H268.92V90.4135C268.92 91.2928 268.736 92.0739 268.366 92.7567C267.996 93.451 267.458 93.995 266.753 94.3883C266.06 94.7816 265.228 94.9785 264.257 94.9785C262.962 94.9785 261.887 94.6719 261.032 94.0585C260.177 93.4569 259.691 92.6352 259.576 91.5938H261.535C261.685 92.0913 262.003 92.4905 262.488 92.7914C262.985 93.1039 263.575 93.2601 264.257 93.2601C265.054 93.2601 265.696 93.0171 266.181 92.5311C266.678 92.0451 266.927 91.3393 266.927 90.4135V88.8166C266.591 89.2679 266.135 89.6498 265.557 89.9622C264.991 90.2632 264.343 90.4135 263.615 90.4135C262.783 90.4135 262.02 90.2052 261.327 89.7887C260.645 89.3606 260.102 88.7705 259.697 88.0182C259.304 87.2545 259.108 86.3926 259.108 85.432C259.108 84.4715 259.304 83.621 259.697 82.8805C260.102 82.14 260.645 81.5673 261.327 81.1621C262.02 80.7456 262.783 80.5373 263.615 80.5373ZM266.927 85.4667C266.927 84.8071 266.788 84.2344 266.511 83.7484C266.245 83.2624 265.892 82.892 265.453 82.6375C265.014 82.383 264.54 82.2556 264.031 82.2556C263.523 82.2556 263.049 82.383 262.61 82.6375C262.17 82.8805 261.812 83.245 261.535 83.731C261.269 84.2055 261.136 84.7724 261.136 85.432C261.136 86.0916 261.269 86.6703 261.535 87.1677C261.812 87.6652 262.17 88.047 262.61 88.3133C263.061 88.5678 263.535 88.6951 264.031 88.6951C264.54 88.6951 265.014 88.5678 265.453 88.3133C265.892 88.0588 266.245 87.6884 266.511 87.2024C266.788 86.705 266.927 86.1263 266.927 85.4667ZM275.66 90.4135C274.758 90.4135 273.944 90.2111 273.215 89.806C272.487 89.3894 271.915 88.8108 271.499 88.0703C271.083 87.318 270.875 86.4502 270.875 85.4667C270.875 84.4947 271.089 83.6328 271.516 82.8805C271.944 82.1282 272.528 81.5499 273.267 81.1448C274.007 80.7397 274.833 80.5373 275.747 80.5373C276.66 80.5373 277.486 80.7397 278.226 81.1448C278.965 81.5499 279.549 82.1282 279.977 82.8805C280.404 83.6328 280.618 84.4947 280.618 85.4667C280.618 86.4387 280.399 87.3007 279.96 88.0529C279.52 88.8052 278.919 89.3894 278.157 89.806C277.405 90.2111 276.573 90.4135 275.66 90.4135ZM275.66 88.6951C276.168 88.6951 276.642 88.5737 277.082 88.3307C277.532 88.0877 277.896 87.7231 278.174 87.2371C278.451 86.7511 278.59 86.161 278.59 85.4667C278.59 84.7724 278.457 84.1882 278.191 83.7136C277.925 83.2276 277.573 82.8631 277.134 82.6201C276.694 82.3771 276.22 82.2556 275.712 82.2556C275.203 82.2556 274.729 82.3771 274.29 82.6201C273.862 82.8631 273.522 83.2276 273.267 83.7136C273.013 84.1882 272.886 84.7724 272.886 85.4667C272.886 86.4967 273.146 87.2951 273.666 87.862C274.198 88.4174 274.862 88.6951 275.66 88.6951ZM277.532 77.9684L273.701 79.8603V78.4023L277.532 76.2848V77.9684ZM281.913 85.4667C281.913 84.4833 282.11 83.621 282.503 82.8805C282.907 82.1282 283.462 81.5499 284.167 81.1448C284.872 80.7397 285.681 80.5373 286.594 80.5373C287.75 80.5373 288.704 80.815 289.455 81.3704C290.217 81.9144 290.732 82.6955 290.998 83.7136H288.865C288.692 83.2391 288.414 82.869 288.033 82.6028C287.652 82.3365 287.172 82.2036 286.594 82.2036C285.785 82.2036 285.138 82.4927 284.652 83.0714C284.179 83.6383 283.941 84.4367 283.941 85.4667C283.941 86.4967 284.179 87.3007 284.652 87.8794C285.138 88.4581 285.785 88.7472 286.594 88.7472C287.738 88.7472 288.496 88.2439 288.865 87.2371H290.998C290.72 88.2091 290.2 88.9843 289.437 89.563C288.674 90.1299 287.727 90.4135 286.594 90.4135C285.681 90.4135 284.872 90.2111 284.167 89.806C283.462 89.3894 282.907 88.8108 282.503 88.0703C282.11 87.318 281.913 86.4502 281.913 85.4667ZM293.973 79.4264C293.615 79.4264 293.314 79.3049 293.071 79.0619C292.829 78.8189 292.707 78.5179 292.707 78.1593C292.707 77.8007 292.829 77.4998 293.071 77.2568C293.314 77.0138 293.615 76.8923 293.973 76.8923C294.32 76.8923 294.614 77.0138 294.857 77.2568C295.1 77.4998 295.221 77.8007 295.221 78.1593C295.221 78.5179 295.1 78.8189 294.857 79.0619C294.614 79.3049 294.32 79.4264 293.973 79.4264ZM294.944 80.6935V90.2573H292.967V80.6935H294.944ZM301.682 90.4135C300.781 90.4135 299.966 90.2111 299.238 89.806C298.509 89.3894 297.937 88.8108 297.521 88.0703C297.105 87.318 296.897 86.4502 296.897 85.4667C296.897 84.4947 297.111 83.6328 297.539 82.8805C297.966 82.1282 298.55 81.5499 299.29 81.1448C300.029 80.7397 300.856 80.5373 301.769 80.5373C302.682 80.5373 303.508 80.7397 304.248 81.1448C304.988 81.5499 305.571 82.1282 305.999 82.8805C306.427 83.6328 306.64 84.4947 306.64 85.4667C306.64 86.4387 306.421 87.3007 305.982 88.0529C305.543 88.8052 304.941 89.3894 304.179 89.806C303.428 90.2111 302.595 90.4135 301.682 90.4135ZM301.682 88.6951C302.191 88.6951 302.665 88.5737 303.104 88.3307C303.554 88.0877 303.919 87.7231 304.196 87.2371C304.473 86.7511 304.612 86.161 304.612 85.4667C304.612 84.7724 304.479 84.1882 304.213 83.7136C303.948 83.2276 303.595 82.8631 303.156 82.6201C302.717 82.3771 302.243 82.2556 301.734 82.2556C301.226 82.2556 300.752 82.3771 300.312 82.6201C299.885 82.8631 299.544 83.2276 299.29 83.7136C299.035 84.1882 298.908 84.7724 298.908 85.4667C298.908 86.4967 299.168 87.2951 299.688 87.862C300.22 88.4174 300.885 88.6951 301.682 88.6951Z" fill="#395B64"/>
<path d="M52.0109 107.614C80.7357 107.614 104.022 84.3013 104.022 55.5429C104.022 26.7846 80.7357 3.47144 52.0109 3.47144C23.2861 3.47144 0 26.7846 0 55.5429C0 84.3013 23.2861 107.614 52.0109 107.614Z" fill="#395B64"/>
<path d="M52.0109 88.5216C70.2033 88.5216 84.9511 73.7565 84.9511 55.5429C84.9511 37.3294 70.2033 22.5643 52.0109 22.5643C33.8185 22.5643 19.0707 37.3294 19.0707 55.5429C19.0707 73.7565 33.8185 88.5216 52.0109 88.5216Z" stroke="white"/>
<path d="M52.0109 72.0323C61.1071 72.0323 68.481 64.6497 68.481 55.5429C68.481 46.4362 61.1071 39.0536 52.0109 39.0536C42.9147 39.0536 35.5408 46.4362 35.5408 55.5429C35.5408 64.6497 42.9147 72.0323 52.0109 72.0323Z" stroke="white" stroke-width="0.9"/>
<path d="M84.9511 65.9573C89.7385 65.9573 93.6195 62.0717 93.6195 57.2787C93.6195 52.4856 89.7385 48.6001 84.9511 48.6001C80.1636 48.6001 76.2826 52.4856 76.2826 57.2787C76.2826 62.0717 80.1636 65.9573 84.9511 65.9573Z" fill="white"/>
<path d="M19.0707 65.9573C23.8582 65.9573 27.7392 62.0717 27.7392 57.2787C27.7392 52.4856 23.8582 48.6001 19.0707 48.6001C14.2832 48.6001 10.4022 52.4856 10.4022 57.2787C10.4022 62.0717 14.2832 65.9573 19.0707 65.9573Z" fill="white"/>
<path d="M53.7445 97.2002C58.532 97.2002 62.413 93.3146 62.413 88.5216C62.413 83.7285 58.532 79.843 53.7445 79.843C48.9571 79.843 45.076 83.7285 45.076 88.5216C45.076 93.3146 48.9571 97.2002 53.7445 97.2002Z" fill="white"/>
<path d="M53.7445 31.2429C58.532 31.2429 62.413 27.3574 62.413 22.5643C62.413 17.7713 58.532 13.8857 53.7445 13.8857C48.9571 13.8857 45.076 17.7713 45.076 22.5643C45.076 27.3574 48.9571 31.2429 53.7445 31.2429Z" fill="white"/>
<path d="M39.875 48.6001C42.7475 48.6001 45.0761 46.2688 45.0761 43.3929C45.0761 40.5171 42.7475 38.1858 39.875 38.1858C37.0026 38.1858 34.674 40.5171 34.674 43.3929C34.674 46.2688 37.0026 48.6001 39.875 48.6001Z" fill="white"/>
<path d="M64.1468 48.6001C67.0192 48.6001 69.3479 46.2688 69.3479 43.3929C69.3479 40.5171 67.0192 38.1858 64.1468 38.1858C61.2743 38.1858 58.9457 40.5171 58.9457 43.3929C58.9457 46.2688 61.2743 48.6001 64.1468 48.6001Z" fill="white"/>
<path d="M52.0108 62.4858C55.8408 62.4858 58.9456 59.3774 58.9456 55.543C58.9456 51.7085 55.8408 48.6001 52.0108 48.6001C48.1809 48.6001 45.076 51.7085 45.076 55.543C45.076 59.3774 48.1809 62.4858 52.0108 62.4858Z" fill="white"/>
<path d="M64.1468 72.9001C67.0192 72.9001 69.3479 70.5688 69.3479 67.693C69.3479 64.8171 67.0192 62.4858 64.1468 62.4858C61.2743 62.4858 58.9457 64.8171 58.9457 67.693C58.9457 70.5688 61.2743 72.9001 64.1468 72.9001Z" fill="white"/>
<path d="M39.875 72.9001C42.7475 72.9001 45.0761 70.5688 45.0761 67.693C45.0761 64.8171 42.7475 62.4858 39.875 62.4858C37.0026 62.4858 34.674 64.8171 34.674 67.693C34.674 70.5688 37.0026 72.9001 39.875 72.9001Z" fill="white"/>
</g>
<defs>
<clipPath id="clip0_30_88">
<rect width="319" height="107.614" fill="white"/>
</clipPath>
</defs>
</svg>
