<svg width="190" height="64" viewBox="0 0 190 64" fill="none" xmlns="http://www.w3.org/2000/svg">
<path d="M74.2525 14.2039V28.8371C74.2525 30.5769 74.7035 31.8871 75.6053 32.768C76.5291 33.6489 77.8049 34.0893 79.4325 34.0893C81.0822 34.0893 82.358 33.6489 83.2598 32.768C84.1836 31.8871 84.6455 30.5769 84.6455 28.8371V14.2039H88.4068V28.7711C88.4068 30.643 88 32.2285 87.1861 33.5277C86.3722 34.8269 85.2834 35.796 83.9197 36.4346C82.556 37.0731 81.0492 37.3925 79.3995 37.3925C77.7499 37.3925 76.2431 37.0731 74.8794 36.4346C73.5376 35.796 72.4708 34.8269 71.679 33.5277C70.8871 32.2285 70.4912 30.643 70.4912 28.7711V14.2039H74.2525ZM99.9029 37.4586C98.473 37.4586 97.1863 37.2053 96.0426 36.6988C94.9208 36.1703 94.03 35.4657 93.3701 34.5848C92.7103 33.682 92.3583 32.6798 92.3143 31.5788H96.2076C96.2736 32.3495 96.6365 32.9992 97.2964 33.5277C97.9781 34.0342 98.825 34.2875 99.8369 34.2875C100.893 34.2875 101.706 34.0893 102.278 33.6929C102.872 33.2744 103.169 32.7459 103.169 32.1073C103.169 31.4246 102.839 30.9182 102.179 30.5879C101.541 30.2575 100.519 29.8942 99.1111 29.4978C97.7472 29.1235 96.6365 28.7601 95.7787 28.4077C94.9208 28.0553 94.1729 27.5159 93.5351 26.7891C92.9191 26.0624 92.6113 25.1045 92.6113 23.9153C92.6113 22.9465 92.8971 22.0655 93.4691 21.2728C94.0409 20.458 94.8549 19.8193 95.9107 19.3569C96.9883 18.8944 98.2202 18.6632 99.606 18.6632C101.673 18.6632 103.334 19.1917 104.588 20.2488C105.864 21.2837 106.546 22.7041 106.634 24.5099H102.872C102.806 23.6951 102.476 23.0456 101.883 22.561C101.289 22.0765 100.486 21.8343 99.474 21.8343C98.4842 21.8343 97.7253 22.0216 97.1974 22.3959C96.6695 22.7702 96.4056 23.2656 96.4056 23.8823C96.4056 24.3669 96.5815 24.7742 96.9335 25.1045C97.2853 25.4348 97.7142 25.6991 98.2202 25.8973C98.7261 26.0734 99.474 26.3046 100.464 26.591C101.784 26.9434 102.861 27.3067 103.697 27.681C104.555 28.0334 105.292 28.5619 105.908 29.2666C106.524 29.9712 106.843 30.9072 106.865 32.0743C106.865 33.1093 106.579 34.0342 106.007 34.849C105.435 35.6639 104.621 36.3024 103.565 36.7649C102.531 37.2273 101.311 37.4586 99.9029 37.4586ZM127.591 27.615C127.591 28.2977 127.547 28.9142 127.459 29.4648H113.568C113.678 30.9182 114.217 32.0853 115.185 32.9662C116.153 33.8471 117.341 34.2875 118.748 34.2875C120.772 34.2875 122.202 33.4396 123.038 31.744H127.096C126.546 33.4177 125.545 34.7939 124.093 35.873C122.663 36.9301 120.882 37.4586 118.748 37.4586C117.011 37.4586 115.449 37.0731 114.063 36.3024C112.699 35.5097 111.622 34.4087 110.83 32.9992C110.06 31.5679 109.675 29.9163 109.675 28.0444C109.675 26.1725 110.049 24.532 110.797 23.1226C111.567 21.6912 112.633 20.5901 113.997 19.8193C115.383 19.0486 116.967 18.6632 118.748 18.6632C120.464 18.6632 121.993 19.0376 123.334 19.7863C124.676 20.535 125.721 21.5921 126.469 22.9574C127.217 24.3008 127.591 25.8533 127.591 27.615ZM123.664 26.4258C123.642 25.0384 123.147 23.9263 122.18 23.0895C121.212 22.2528 120.013 21.8343 118.583 21.8343C117.285 21.8343 116.175 22.2528 115.251 23.0895C114.327 23.9044 113.777 25.0163 113.601 26.4258H123.664ZM135.053 21.6031C135.603 20.6782 136.329 19.9625 137.231 19.456C138.155 18.9275 139.244 18.6632 140.497 18.6632V22.561H139.541C138.067 22.561 136.945 22.9353 136.175 23.6841C135.427 24.4329 135.053 25.7321 135.053 27.5819V37.1613H131.292V18.9605H135.053V21.6031ZM150.554 37.4586C149.124 37.4586 147.837 37.2053 146.693 36.6988C145.571 36.1703 144.681 35.4657 144.021 34.5848C143.361 33.682 143.009 32.6798 142.965 31.5788H146.858C146.924 32.3495 147.287 32.9992 147.947 33.5277C148.629 34.0342 149.476 34.2875 150.488 34.2875C151.543 34.2875 152.357 34.0893 152.929 33.6929C153.523 33.2744 153.82 32.7459 153.82 32.1073C153.82 31.4246 153.49 30.9182 152.83 30.5879C152.192 30.2575 151.169 29.8942 149.762 29.4978C148.398 29.1235 147.287 28.7601 146.429 28.4077C145.571 28.0553 144.824 27.5159 144.186 26.7891C143.57 26.0624 143.262 25.1045 143.262 23.9153C143.262 22.9465 143.548 22.0655 144.12 21.2728C144.692 20.458 145.505 19.8193 146.561 19.3569C147.639 18.8944 148.871 18.6632 150.257 18.6632C152.324 18.6632 153.985 19.1917 155.239 20.2488C156.514 21.2837 157.196 22.7041 157.284 24.5099H153.523C153.457 23.6951 153.127 23.0456 152.533 22.561C151.939 22.0765 151.136 21.8343 150.125 21.8343C149.135 21.8343 148.376 22.0216 147.848 22.3959C147.32 22.7702 147.056 23.2656 147.056 23.8823C147.056 24.3669 147.232 24.7742 147.584 25.1045C147.936 25.4348 148.365 25.6991 148.871 25.8973C149.377 26.0734 150.125 26.3046 151.114 26.591C152.434 26.9434 153.512 27.3067 154.348 27.681C155.206 28.0334 155.942 28.5619 156.558 29.2666C157.174 29.9712 157.493 30.9072 157.515 32.0743C157.515 33.1093 157.229 34.0342 156.657 34.849C156.085 35.6639 155.272 36.3024 154.216 36.7649C153.182 37.2273 151.961 37.4586 150.554 37.4586Z" fill="white"/>
<path d="M76.0713 48.5677C75.8857 48.21 75.6279 47.9416 75.298 47.7626C74.9681 47.5768 74.5866 47.4839 74.1535 47.4839C73.6792 47.4839 73.2565 47.5906 72.8853 47.8039C72.5142 48.0171 72.2219 48.32 72.0089 48.7123C71.8027 49.1045 71.6996 49.5587 71.6996 50.0748C71.6996 50.591 71.8027 51.0487 72.0089 51.4477C72.2219 51.84 72.5142 52.1429 72.8853 52.3561C73.2565 52.5694 73.6792 52.6761 74.1535 52.6761C74.7928 52.6761 75.3118 52.4971 75.7104 52.1393C76.109 51.7816 76.3532 51.2964 76.4425 50.6839H73.7514V49.7445H77.7004V50.6632C77.6247 51.2206 77.4255 51.7333 77.1023 52.2013C76.7862 52.6693 76.3703 53.0442 75.8548 53.3264C75.3461 53.6016 74.779 53.7394 74.1535 53.7394C73.4798 53.7394 72.8647 53.5845 72.3079 53.2748C71.7512 52.9583 71.3078 52.5213 70.9779 51.9639C70.6547 51.4064 70.4933 50.7768 70.4933 50.0748C70.4933 49.3729 70.6547 48.7432 70.9779 48.1858C71.3078 47.6284 71.7512 47.1948 72.3079 46.8852C72.8715 46.5687 73.4868 46.4103 74.1535 46.4103C74.9165 46.4103 75.5935 46.5996 76.1847 46.9781C76.7827 47.3497 77.2158 47.8796 77.4838 48.5677H76.0713ZM84.0665 50.6942C84.0665 50.9075 84.0527 51.1003 84.0253 51.2723H79.6845C79.719 51.7264 79.8872 52.0912 80.1897 52.3664C80.4923 52.6416 80.8634 52.7794 81.3033 52.7794C81.9357 52.7794 82.3824 52.5145 82.6437 51.9845H83.9119C83.7401 52.5075 83.4273 52.9377 82.9736 53.2748C82.5267 53.6052 81.97 53.7703 81.3033 53.7703C80.7603 53.7703 80.2722 53.65 79.8392 53.409C79.413 53.1613 79.0762 52.8171 78.8287 52.3768C78.5881 51.9294 78.4679 51.4133 78.4679 50.8284C78.4679 50.2435 78.5848 49.7307 78.8184 49.2903C79.0591 48.8429 79.3923 48.499 79.8186 48.2581C80.2516 48.0171 80.7465 47.8968 81.3033 47.8968C81.8394 47.8968 82.3172 48.0138 82.7365 48.2477C83.1557 48.4816 83.4823 48.812 83.716 49.2387C83.9496 49.6584 84.0665 50.1436 84.0665 50.6942ZM82.8396 50.3226C82.8328 49.889 82.6781 49.5416 82.3756 49.28C82.0731 49.0184 81.6986 48.8877 81.2517 48.8877C80.8461 48.8877 80.4991 49.0184 80.2104 49.28C79.9217 49.5346 79.7499 49.8822 79.6948 50.3226H82.8396ZM86.3986 48.8155C86.5705 48.5264 86.7974 48.3029 87.0791 48.1445C87.3678 47.9793 87.708 47.8968 88.0998 47.8968V49.1148H87.8008C87.3403 49.1148 86.9898 49.2319 86.7491 49.4658C86.5155 49.6997 86.3986 50.1058 86.3986 50.6839V53.6774H85.2231V47.9897H86.3986V48.8155ZM94.3872 50.6942C94.3872 50.9075 94.3734 51.1003 94.3459 51.2723H90.0052C90.0394 51.7264 90.2079 52.0912 90.5104 52.3664C90.8127 52.6416 91.1839 52.7794 91.6239 52.7794C92.2562 52.7794 92.7031 52.5145 92.9643 51.9845H94.2325C94.0605 52.5075 93.7479 52.9377 93.2943 53.2748C92.8474 53.6052 92.2906 53.7703 91.6239 53.7703C91.0808 53.7703 90.5929 53.65 90.1598 53.409C89.7336 53.1613 89.3969 52.8171 89.1494 52.3768C88.9088 51.9294 88.7885 51.4133 88.7885 50.8284C88.7885 50.2435 88.9053 49.7307 89.1391 49.2903C89.3795 48.8429 89.713 48.499 90.1392 48.2581C90.5723 48.0171 91.0672 47.8968 91.6239 47.8968C92.1601 47.8968 92.6377 48.0138 93.0571 48.2477C93.4763 48.4816 93.8028 48.812 94.0366 49.2387C94.2703 49.6584 94.3872 50.1436 94.3872 50.6942ZM93.1602 50.3226C93.1532 49.889 92.9985 49.5416 92.6962 49.28C92.3937 49.0184 92.019 48.8877 91.5724 48.8877C91.1668 48.8877 90.8197 49.0184 90.531 49.28C90.2423 49.5346 90.0704 49.8822 90.0155 50.3226H93.1602ZM98.4102 47.8968C98.857 47.8968 99.2556 47.9897 99.6062 48.1755C99.9635 48.3613 100.242 48.6365 100.441 49.0013C100.641 49.3661 100.74 49.8064 100.74 50.3226V53.6774H99.5752V50.4981C99.5752 49.9887 99.448 49.6 99.1938 49.3316C98.9395 49.0564 98.5922 48.9187 98.1524 48.9187C97.7125 48.9187 97.362 49.0564 97.1007 49.3316C96.8465 49.6 96.7192 49.9887 96.7192 50.4981V53.6774H95.5438V47.9897H96.7192V48.64C96.9116 48.4061 97.1558 48.2236 97.4513 48.0929C97.7538 47.9622 98.0734 47.8968 98.4102 47.8968ZM101.848 50.8284C101.848 50.2435 101.965 49.7307 102.198 49.2903C102.439 48.8429 102.769 48.499 103.188 48.2581C103.607 48.0171 104.089 47.8968 104.632 47.8968C105.319 47.8968 105.886 48.0619 106.333 48.3923C106.787 48.7158 107.092 49.1803 107.251 49.7858H105.982C105.879 49.5036 105.714 49.2835 105.488 49.1252C105.261 48.9668 104.975 48.8877 104.632 48.8877C104.15 48.8877 103.766 49.0597 103.477 49.4039C103.195 49.741 103.054 50.2158 103.054 50.8284C103.054 51.4409 103.195 51.9191 103.477 52.2632C103.766 52.6074 104.15 52.7794 104.632 52.7794C105.312 52.7794 105.762 52.48 105.982 51.8813H107.251C107.086 52.4593 106.776 52.9204 106.323 53.2645C105.869 53.6016 105.305 53.7703 104.632 53.7703C104.089 53.7703 103.607 53.65 103.188 53.409C102.769 53.1613 102.439 52.8171 102.198 52.3768C101.965 51.9294 101.848 51.4133 101.848 50.8284ZM109.02 47.2361C108.807 47.2361 108.628 47.1639 108.484 47.0193C108.339 46.8748 108.267 46.6958 108.267 46.4826C108.267 46.2693 108.339 46.0903 108.484 45.9458C108.628 45.8013 108.807 45.729 109.02 45.729C109.226 45.729 109.401 45.8013 109.546 45.9458C109.69 46.0903 109.762 46.2693 109.762 46.4826C109.762 46.6958 109.69 46.8748 109.546 47.0193C109.401 47.1639 109.226 47.2361 109.02 47.2361ZM109.597 47.9897V53.6774H108.422V47.9897H109.597ZM116.347 50.6942C116.347 50.9075 116.334 51.1003 116.306 51.2723H111.965C112 51.7264 112.168 52.0912 112.471 52.3664C112.773 52.6416 113.144 52.7794 113.584 52.7794C114.217 52.7794 114.663 52.5145 114.925 51.9845H116.193C116.021 52.5075 115.708 52.9377 115.255 53.2748C114.808 53.6052 114.251 53.7703 113.584 53.7703C113.041 53.7703 112.553 53.65 112.12 53.409C111.694 53.1613 111.357 52.8171 111.11 52.3768C110.869 51.9294 110.749 51.4133 110.749 50.8284C110.749 50.2435 110.866 49.7307 111.099 49.2903C111.34 48.8429 111.673 48.499 112.099 48.2581C112.533 48.0171 113.027 47.8968 113.584 47.8968C114.12 47.8968 114.598 48.0138 115.017 48.2477C115.437 48.4816 115.763 48.812 115.997 49.2387C116.231 49.6584 116.347 50.1436 116.347 50.6942ZM115.12 50.3226C115.114 49.889 114.959 49.5416 114.657 49.28C114.354 49.0184 113.98 48.8877 113.533 48.8877C113.127 48.8877 112.78 49.0184 112.491 49.28C112.203 49.5346 112.031 49.8822 111.976 50.3226H115.12ZM122.245 53.7703C121.798 53.7703 121.396 53.6912 121.038 53.5329C120.688 53.3677 120.409 53.1475 120.203 52.8723C119.997 52.59 119.887 52.2771 119.873 51.9329H121.09C121.11 52.1738 121.224 52.3768 121.43 52.5419C121.643 52.7003 121.908 52.7794 122.224 52.7794C122.554 52.7794 122.808 52.7174 122.987 52.5935C123.173 52.4629 123.265 52.2977 123.265 52.0981C123.265 51.8848 123.162 51.7264 122.956 51.6232C122.757 51.52 122.437 51.4064 121.997 51.2826C121.571 51.1655 121.224 51.052 120.956 50.9419C120.688 50.8319 120.454 50.6632 120.255 50.4361C120.062 50.209 119.966 49.9097 119.966 49.5381C119.966 49.2352 120.055 48.96 120.234 48.7123C120.413 48.4577 120.667 48.2581 120.997 48.1135C121.334 47.969 121.719 47.8968 122.152 47.8968C122.798 47.8968 123.317 48.0619 123.709 48.3923C124.107 48.7158 124.32 49.1596 124.348 49.7239H123.173C123.152 49.4693 123.049 49.2662 122.863 49.1148C122.678 48.9635 122.427 48.8877 122.111 48.8877C121.801 48.8877 121.564 48.9462 121.399 49.0632C121.234 49.1803 121.152 49.3351 121.152 49.5277C121.152 49.6791 121.207 49.8064 121.317 49.9097C121.427 50.0129 121.561 50.0955 121.719 50.1574C121.877 50.2125 122.111 50.2848 122.42 50.3742C122.832 50.4842 123.169 50.5978 123.43 50.7148C123.698 50.8249 123.929 50.99 124.121 51.2103C124.314 51.4306 124.413 51.7229 124.42 52.0877C124.42 52.4112 124.331 52.7003 124.152 52.9548C123.973 53.2094 123.719 53.409 123.389 53.5535C123.066 53.6981 122.685 53.7703 122.245 53.7703ZM130.897 50.6942C130.897 50.9075 130.883 51.1003 130.856 51.2723H126.515C126.549 51.7264 126.718 52.0912 127.02 52.3664C127.323 52.6416 127.694 52.7794 128.134 52.7794C128.766 52.7794 129.213 52.5145 129.474 51.9845H130.742C130.57 52.5075 130.258 52.9377 129.804 53.2748C129.357 53.6052 128.801 53.7703 128.134 53.7703C127.591 53.7703 127.103 53.65 126.67 53.409C126.244 53.1613 125.907 52.8171 125.659 52.3768C125.419 51.9294 125.298 51.4133 125.298 50.8284C125.298 50.2435 125.415 49.7307 125.649 49.2903C125.889 48.8429 126.223 48.499 126.649 48.2581C127.082 48.0171 127.577 47.8968 128.134 47.8968C128.67 47.8968 129.148 48.0138 129.567 48.2477C129.986 48.4816 130.313 48.812 130.546 49.2387C130.78 49.6584 130.897 50.1436 130.897 50.6942ZM129.67 50.3226C129.663 49.889 129.508 49.5416 129.206 49.28C128.904 49.0184 128.529 48.8877 128.082 48.8877C127.677 48.8877 127.329 49.0184 127.041 49.28C126.752 49.5346 126.58 49.8822 126.525 50.3226H129.67ZM137.199 47.9897V53.6774H136.023V53.0064C135.838 53.2404 135.594 53.4262 135.291 53.5639C134.996 53.6945 134.679 53.76 134.343 53.76C133.896 53.76 133.494 53.6671 133.136 53.4813C132.786 53.2955 132.507 53.0203 132.301 52.6555C132.102 52.2907 132.002 51.8503 132.002 51.3342V47.9897H133.167V51.1587C133.167 51.668 133.294 52.0603 133.549 52.3355C133.803 52.6039 134.15 52.7381 134.59 52.7381C135.03 52.7381 135.377 52.6039 135.631 52.3355C135.893 52.0603 136.023 51.668 136.023 51.1587V47.9897H137.199ZM144.294 47.8968C144.741 47.8968 145.14 47.9897 145.49 48.1755C145.848 48.3613 146.126 48.6365 146.325 49.0013C146.525 49.3661 146.624 49.8064 146.624 50.3226V53.6774H145.459V50.4981C145.459 49.9887 145.332 49.6 145.078 49.3316C144.824 49.0564 144.476 48.9187 144.036 48.9187C143.597 48.9187 143.246 49.0564 142.985 49.3316C142.73 49.6 142.603 49.9887 142.603 50.4981V53.6774H141.428V47.9897H142.603V48.64C142.796 48.4061 143.04 48.2236 143.335 48.0929C143.638 47.9622 143.957 47.8968 144.294 47.8968ZM153.331 50.6942C153.331 50.9075 153.317 51.1003 153.289 51.2723H148.949C148.983 51.7264 149.151 52.0912 149.454 52.3664C149.756 52.6416 150.127 52.7794 150.567 52.7794C151.2 52.7794 151.646 52.5145 151.908 51.9845H153.176C153.004 52.5075 152.691 52.9377 152.238 53.2748C151.791 53.6052 151.234 53.7703 150.567 53.7703C150.024 53.7703 149.536 53.65 149.103 53.409C148.677 53.1613 148.34 52.8171 148.093 52.3768C147.852 51.9294 147.732 51.4133 147.732 50.8284C147.732 50.2435 147.849 49.7307 148.082 49.2903C148.323 48.8429 148.656 48.499 149.083 48.2581C149.516 48.0171 150.011 47.8968 150.567 47.8968C151.103 47.8968 151.581 48.0138 152.001 48.2477C152.42 48.4816 152.746 48.812 152.98 49.2387C153.214 49.6584 153.331 50.1436 153.331 50.6942ZM152.104 50.3226C152.097 49.889 151.942 49.5416 151.64 49.28C151.337 49.0184 150.962 48.8877 150.516 48.8877C150.11 48.8877 149.763 49.0184 149.474 49.28C149.186 49.5346 149.014 49.8822 148.959 50.3226H152.104ZM156.776 47.8968C157.216 47.8968 157.605 47.9862 157.941 48.1652C158.285 48.3371 158.553 48.5539 158.745 48.8155V47.9897H159.931V53.7703C159.931 54.2933 159.821 54.7578 159.601 55.1639C159.381 55.5768 159.062 55.9003 158.642 56.1342C158.23 56.3681 157.735 56.4852 157.158 56.4852C156.388 56.4852 155.749 56.3029 155.24 55.9381C154.731 55.5803 154.442 55.0916 154.374 54.4723H155.539C155.628 54.7681 155.817 55.0055 156.106 55.1845C156.401 55.3703 156.752 55.4632 157.158 55.4632C157.632 55.4632 158.013 55.3187 158.302 55.0297C158.598 54.7406 158.745 54.3209 158.745 53.7703V52.8206C158.546 53.089 158.275 53.3161 157.931 53.5019C157.594 53.6809 157.209 53.7703 156.776 53.7703C156.281 53.7703 155.828 53.6464 155.415 53.3987C155.01 53.1441 154.687 52.7932 154.446 52.3458C154.212 51.8916 154.095 51.379 154.095 50.8077C154.095 50.2365 154.212 49.7307 154.446 49.2903C154.687 48.85 155.01 48.5093 155.415 48.2684C155.828 48.0206 156.281 47.8968 156.776 47.8968ZM158.745 50.8284C158.745 50.4361 158.663 50.0955 158.498 49.8064C158.34 49.5174 158.13 49.2971 157.869 49.1458C157.608 48.9945 157.326 48.9187 157.024 48.9187C156.721 48.9187 156.439 48.9945 156.178 49.1458C155.917 49.2903 155.704 49.5071 155.539 49.7961C155.381 50.0783 155.302 50.4155 155.302 50.8077C155.302 51.2 155.381 51.5442 155.539 51.84C155.704 52.1358 155.917 52.3629 156.178 52.5213C156.446 52.6726 156.728 52.7484 157.024 52.7484C157.326 52.7484 157.608 52.6726 157.869 52.5213C158.13 52.37 158.34 52.1497 158.498 51.8606C158.663 51.5648 158.745 51.2206 158.745 50.8284ZM163.939 53.7703C163.403 53.7703 162.919 53.65 162.486 53.409C162.052 53.1613 161.712 52.8171 161.465 52.3768C161.217 51.9294 161.094 51.4133 161.094 50.8284C161.094 50.2503 161.221 49.7377 161.475 49.2903C161.729 48.8429 162.076 48.499 162.516 48.2581C162.956 48.0171 163.448 47.8968 163.991 47.8968C164.534 47.8968 165.025 48.0171 165.465 48.2581C165.905 48.499 166.252 48.8429 166.507 49.2903C166.761 49.7377 166.888 50.2503 166.888 50.8284C166.888 51.4064 166.757 51.9191 166.496 52.3664C166.235 52.8138 165.878 53.1613 165.424 53.409C164.977 53.65 164.482 53.7703 163.939 53.7703ZM163.939 52.7484C164.242 52.7484 164.524 52.6761 164.785 52.5316C165.053 52.3871 165.269 52.1703 165.434 51.8813C165.599 51.5923 165.682 51.2413 165.682 50.8284C165.682 50.4155 165.603 50.068 165.445 49.7858C165.286 49.4968 165.077 49.28 164.816 49.1355C164.554 48.991 164.273 48.9187 163.97 48.9187C163.668 48.9187 163.386 48.991 163.125 49.1355C162.87 49.28 162.668 49.4968 162.516 49.7858C162.365 50.068 162.29 50.4155 162.29 50.8284C162.29 51.4409 162.444 51.9158 162.754 52.2529C163.07 52.5832 163.465 52.7484 163.939 52.7484ZM165.053 46.369L162.774 47.4942V46.6271L165.053 45.3677V46.369ZM167.658 50.8284C167.658 50.2435 167.775 49.7307 168.009 49.2903C168.249 48.8429 168.579 48.499 168.999 48.2581C169.418 48.0171 169.899 47.8968 170.442 47.8968C171.129 47.8968 171.697 48.0619 172.143 48.3923C172.597 48.7158 172.903 49.1803 173.061 49.7858H171.793C171.69 49.5036 171.525 49.2835 171.298 49.1252C171.071 48.9668 170.786 48.8877 170.442 48.8877C169.961 48.8877 169.576 49.0597 169.287 49.4039C169.006 49.741 168.864 50.2158 168.864 50.8284C168.864 51.4409 169.006 51.9191 169.287 52.2632C169.576 52.6074 169.961 52.7794 170.442 52.7794C171.122 52.7794 171.573 52.48 171.793 51.8813H173.061C172.896 52.4593 172.587 52.9204 172.133 53.2645C171.679 53.6016 171.116 53.7703 170.442 53.7703C169.899 53.7703 169.418 53.65 168.999 53.409C168.579 53.1613 168.249 52.8171 168.009 52.3768C167.775 51.9294 167.658 51.4133 167.658 50.8284ZM174.83 47.2361C174.617 47.2361 174.439 47.1639 174.294 47.0193C174.15 46.8748 174.078 46.6958 174.078 46.4826C174.078 46.2693 174.15 46.0903 174.294 45.9458C174.439 45.8013 174.617 45.729 174.83 45.729C175.037 45.729 175.212 45.8013 175.356 45.9458C175.501 46.0903 175.573 46.2693 175.573 46.4826C175.573 46.6958 175.501 46.8748 175.356 47.0193C175.212 47.1639 175.037 47.2361 174.83 47.2361ZM175.408 47.9897V53.6774H174.232V47.9897H175.408ZM179.415 53.7703C178.879 53.7703 178.394 53.65 177.961 53.409C177.528 53.1613 177.188 52.8171 176.941 52.3768C176.693 51.9294 176.569 51.4133 176.569 50.8284C176.569 50.2503 176.697 49.7377 176.951 49.2903C177.205 48.8429 177.552 48.499 177.992 48.2581C178.432 48.0171 178.924 47.8968 179.467 47.8968C180.01 47.8968 180.501 48.0171 180.941 48.2581C181.381 48.499 181.728 48.8429 181.982 49.2903C182.237 49.7377 182.364 50.2503 182.364 50.8284C182.364 51.4064 182.233 51.9191 181.972 52.3664C181.711 52.8138 181.353 53.1613 180.9 53.409C180.453 53.65 179.958 53.7703 179.415 53.7703ZM179.415 52.7484C179.718 52.7484 179.999 52.6761 180.261 52.5316C180.529 52.3871 180.745 52.1703 180.91 51.8813C181.075 51.5923 181.158 51.2413 181.158 50.8284C181.158 50.4155 181.079 50.068 180.92 49.7858C180.762 49.4968 180.553 49.28 180.291 49.1355C180.03 48.991 179.748 48.9187 179.446 48.9187C179.144 48.9187 178.862 48.991 178.601 49.1355C178.346 49.28 178.144 49.4968 177.992 49.7858C177.841 50.068 177.765 50.4155 177.765 50.8284C177.765 51.4409 177.92 51.9158 178.229 52.2529C178.546 52.5832 178.941 52.7484 179.415 52.7484Z" fill="white"/>
<path d="M30.9317 64C48.0148 64 61.8633 50.1353 61.8633 33.0323C61.8633 15.9292 48.0148 2.06451 30.9317 2.06451C13.8486 2.06451 0 15.9292 0 33.0323C0 50.1353 13.8486 64 30.9317 64Z" fill="white"/>
<path d="M30.9317 64C48.0148 64 61.8633 50.1353 61.8633 33.0323C61.8633 15.9292 48.0148 2.06451 30.9317 2.06451C13.8486 2.06451 0 15.9292 0 33.0323C0 50.1353 13.8486 64 30.9317 64Z" fill="white"/>
<path d="M30.9317 64C48.0148 64 61.8633 50.1353 61.8633 33.0323C61.8633 15.9292 48.0148 2.06451 30.9317 2.06451C13.8486 2.06451 0 15.9292 0 33.0323C0 50.1353 13.8486 64 30.9317 64Z" fill="white"/>
<path d="M30.9317 52.6452C41.751 52.6452 50.5218 43.8642 50.5218 33.0323C50.5218 22.2004 41.751 13.4194 30.9317 13.4194C20.1124 13.4194 11.3417 22.2004 11.3417 33.0323C11.3417 43.8642 20.1124 52.6452 30.9317 52.6452Z" stroke="#2C3333"/>
<path d="M30.9316 42.8387C36.3413 42.8387 40.7267 38.4482 40.7267 33.0323C40.7267 27.6163 36.3413 23.2258 30.9316 23.2258C25.522 23.2258 21.1366 27.6163 21.1366 33.0323C21.1366 38.4482 25.522 42.8387 30.9316 42.8387Z" stroke="#2C3333" stroke-width="0.9"/>
<path d="M50.5217 39.2258C53.3689 39.2258 55.677 36.915 55.677 34.0645C55.677 31.214 53.3689 28.9032 50.5217 28.9032C47.6746 28.9032 45.3665 31.214 45.3665 34.0645C45.3665 36.915 47.6746 39.2258 50.5217 39.2258Z" fill="#2C3333"/>
<path d="M11.3416 39.2258C14.1887 39.2258 16.4968 36.915 16.4968 34.0645C16.4968 31.214 14.1887 28.9032 11.3416 28.9032C8.49438 28.9032 6.18628 31.214 6.18628 34.0645C6.18628 36.915 8.49438 39.2258 11.3416 39.2258Z" fill="#2C3333"/>
<path d="M31.9628 57.8065C34.81 57.8065 37.1181 55.4957 37.1181 52.6452C37.1181 49.7947 34.81 47.4839 31.9628 47.4839C29.1156 47.4839 26.8075 49.7947 26.8075 52.6452C26.8075 55.4957 29.1156 57.8065 31.9628 57.8065Z" fill="#2C3333"/>
<path d="M31.9628 18.5806C34.81 18.5806 37.1181 16.2698 37.1181 13.4193C37.1181 10.5688 34.81 8.25806 31.9628 8.25806C29.1156 8.25806 26.8075 10.5688 26.8075 13.4193C26.8075 16.2698 29.1156 18.5806 31.9628 18.5806Z" fill="#2C3333"/>
<path d="M23.7143 28.9032C25.4226 28.9032 26.8074 27.5167 26.8074 25.8064C26.8074 24.0961 25.4226 22.7097 23.7143 22.7097C22.006 22.7097 20.6211 24.0961 20.6211 25.8064C20.6211 27.5167 22.006 28.9032 23.7143 28.9032Z" fill="#2C3333"/>
<path d="M38.1491 28.9032C39.8574 28.9032 41.2422 27.5167 41.2422 25.8064C41.2422 24.0961 39.8574 22.7097 38.1491 22.7097C36.4408 22.7097 35.0559 24.0961 35.0559 25.8064C35.0559 27.5167 36.4408 28.9032 38.1491 28.9032Z" fill="#2C3333"/>
<path d="M30.9317 37.1613C33.2095 37.1613 35.0559 35.3126 35.0559 33.0322C35.0559 30.7518 33.2095 28.9032 30.9317 28.9032C28.654 28.9032 26.8075 30.7518 26.8075 33.0322C26.8075 35.3126 28.654 37.1613 30.9317 37.1613Z" fill="#2C3333"/>
<path d="M38.1491 43.3549C39.8574 43.3549 41.2422 41.9684 41.2422 40.2581C41.2422 38.5478 39.8574 37.1613 38.1491 37.1613C36.4408 37.1613 35.0559 38.5478 35.0559 40.2581C35.0559 41.9684 36.4408 43.3549 38.1491 43.3549Z" fill="#2C3333"/>
<path d="M23.7143 43.3549C25.4226 43.3549 26.8074 41.9684 26.8074 40.2581C26.8074 38.5478 25.4226 37.1613 23.7143 37.1613C22.006 37.1613 20.6211 38.5478 20.6211 40.2581C20.6211 41.9684 22.006 43.3549 23.7143 43.3549Z" fill="#2C3333"/>
</svg>
